<svg xmlns="http://www.w3.org/2000/svg" xmlns:xlink="http://www.w3.org/1999/xlink" version="1.1" width="256" height="256" viewBox="0 0 256 256" xml:space="preserve">
<g style="stroke: none; stroke-width: 0; stroke-dasharray: none; stroke-linecap: butt; stroke-linejoin: miter; stroke-miterlimit: 10; fill: none; fill-rule: nonzero; opacity: 1;" transform="translate(1.4065934065934016 1.4065934065934016) scale(2.81 2.81)">
	<path d="M 40.554 89.772 c -0.068 0 -0.137 -0.003 -0.207 -0.011 c -3.126 -0.32 -6.223 -0.972 -9.205 -1.936 c -1.051 -0.34 -1.627 -1.468 -1.288 -2.519 c 0.339 -1.052 1.468 -1.624 2.518 -1.288 c 2.715 0.878 5.535 1.472 8.382 1.764 c 1.099 0.112 1.898 1.095 1.786 2.193 C 42.436 89.006 41.567 89.772 40.554 89.772 z M 49.533 89.764 c -1.012 0 -1.88 -0.764 -1.987 -1.792 c -0.115 -1.099 0.683 -2.082 1.781 -2.197 c 2.846 -0.298 5.664 -0.896 8.377 -1.779 c 1.054 -0.344 2.18 0.232 2.521 1.282 c 0.343 1.05 -0.231 2.179 -1.282 2.521 c -2.979 0.971 -6.075 1.628 -9.199 1.955 C 49.673 89.76 49.603 89.764 49.533 89.764 z M 23.544 84.274 c -0.339 0 -0.683 -0.086 -0.997 -0.268 c -2.713 -1.564 -5.274 -3.423 -7.611 -5.522 c -0.821 -0.738 -0.889 -2.002 -0.151 -2.824 c 0.738 -0.821 2.003 -0.89 2.825 -0.15 c 2.129 1.913 4.463 3.606 6.935 5.032 c 0.957 0.552 1.285 1.774 0.733 2.731 C 24.909 83.916 24.236 84.274 23.544 84.274 z M 66.528 84.232 c -0.69 0 -1.361 -0.357 -1.732 -0.997 c -0.554 -0.956 -0.229 -2.18 0.728 -2.733 c 2.472 -1.433 4.802 -3.13 6.925 -5.046 c 0.822 -0.739 2.085 -0.674 2.825 0.146 c 0.739 0.82 0.675 2.085 -0.146 2.825 c -2.33 2.102 -4.887 3.964 -7.599 5.536 C 67.214 84.146 66.868 84.232 66.528 84.232 z M 10.25 72.331 c -0.617 0 -1.225 -0.284 -1.617 -0.82 c -1.852 -2.536 -3.44 -5.271 -4.721 -8.131 c -0.452 -1.008 0 -2.191 1.008 -2.643 c 1.005 -0.452 2.191 -0.001 2.643 1.008 c 1.167 2.604 2.613 5.096 4.301 7.406 c 0.651 0.893 0.456 2.144 -0.436 2.795 C 11.073 72.206 10.66 72.331 10.25 72.331 z M 79.798 72.264 c -0.407 0 -0.819 -0.124 -1.174 -0.383 c -0.894 -0.649 -1.092 -1.9 -0.441 -2.793 c 1.683 -2.314 3.125 -4.811 4.287 -7.419 c 0.45 -1.01 1.633 -1.459 2.642 -1.013 c 1.009 0.45 1.462 1.633 1.013 2.642 c -1.276 2.862 -2.859 5.602 -4.707 8.142 C 81.026 71.979 80.416 72.264 79.798 72.264 z M 2.946 56.021 c -0.923 0 -1.753 -0.643 -1.954 -1.582 C 0.34 51.385 0.006 48.239 0 45.092 c -0.002 -1.104 0.892 -2.002 1.996 -2.004 c 0.001 0 0.003 0 0.004 0 c 1.103 0 1.998 0.893 2 1.996 c 0.005 2.87 0.31 5.737 0.904 8.52 c 0.23 1.081 -0.458 2.144 -1.539 2.374 C 3.225 56.008 3.084 56.021 2.946 56.021 z M 87.072 55.936 c -0.137 0 -0.276 -0.014 -0.416 -0.043 c -1.08 -0.229 -1.771 -1.29 -1.543 -2.371 C 85.702 50.739 86 47.872 86 45 l -0.001 -0.177 c 0 -1.104 0.896 -2 2 -2 s 2 0.896 2 2 L 90 44.967 c 0 3.183 -0.327 6.328 -0.973 9.383 C 88.828 55.29 87.997 55.936 87.072 55.936 z M 2.914 38.151 c -0.136 0 -0.273 -0.014 -0.412 -0.043 c -1.081 -0.226 -1.774 -1.286 -1.548 -2.367 c 0.643 -3.072 1.613 -6.084 2.885 -8.954 c 0.448 -1.01 1.628 -1.466 2.639 -1.018 c 1.01 0.448 1.465 1.629 1.018 2.639 c -1.158 2.612 -2.042 5.355 -2.627 8.152 C 4.672 37.503 3.84 38.151 2.914 38.151 z M 87.03 37.892 c -0.922 0 -1.751 -0.641 -1.953 -1.579 c -0.603 -2.793 -1.503 -5.53 -2.676 -8.135 c -0.454 -1.007 -0.005 -2.191 1.002 -2.645 c 1.009 -0.453 2.192 -0.004 2.645 1.002 c 1.289 2.86 2.277 5.866 2.939 8.934 c 0.232 1.08 -0.454 2.144 -1.533 2.377 C 87.312 37.877 87.17 37.892 87.03 37.892 z M 10.146 21.809 c -0.407 0 -0.817 -0.124 -1.171 -0.38 c -0.895 -0.648 -1.095 -1.898 -0.447 -2.793 c 1.838 -2.539 3.95 -4.894 6.276 -7 c 0.819 -0.741 2.083 -0.679 2.825 0.14 c 0.742 0.818 0.679 2.083 -0.14 2.825 c -2.12 1.92 -4.045 4.067 -5.72 6.381 C 11.377 21.521 10.766 21.809 10.146 21.809 z M 79.7 21.599 c -0.616 0 -1.224 -0.283 -1.615 -0.818 c -1.688 -2.303 -3.624 -4.438 -5.758 -6.346 c -0.823 -0.737 -0.893 -2.001 -0.156 -2.824 c 0.735 -0.823 2 -0.894 2.824 -0.157 c 2.34 2.094 4.465 4.437 6.316 6.963 c 0.653 0.891 0.46 2.143 -0.432 2.795 C 80.524 21.473 80.11 21.599 79.7 21.599 z M 23.398 9.813 c -0.689 0 -1.359 -0.356 -1.73 -0.994 c -0.556 -0.955 -0.232 -2.179 0.722 -2.735 c 2.715 -1.581 5.602 -2.877 8.58 -3.854 c 1.048 -0.344 2.179 0.228 2.523 1.277 c 0.344 1.049 -0.228 2.179 -1.277 2.523 c -2.711 0.889 -5.34 2.07 -7.813 3.51 C 24.086 9.726 23.74 9.813 23.398 9.813 z M 66.374 9.683 c -0.338 0 -0.68 -0.086 -0.994 -0.266 c -2.48 -1.424 -5.116 -2.589 -7.834 -3.462 c -1.052 -0.338 -1.631 -1.464 -1.293 -2.516 s 1.463 -1.632 2.516 -1.293 c 2.985 0.958 5.88 2.238 8.604 3.802 c 0.958 0.55 1.288 1.772 0.738 2.73 C 67.74 9.322 67.066 9.683 66.374 9.683 z M 40.374 4.246 c -1.009 0 -1.876 -0.761 -1.986 -1.787 c -0.118 -1.098 0.678 -2.084 1.776 -2.202 c 3.103 -0.332 6.302 -0.342 9.397 -0.029 c 1.1 0.111 1.9 1.091 1.79 2.19 c -0.111 1.099 -1.089 1.898 -2.19 1.789 c -2.822 -0.285 -5.742 -0.276 -8.571 0.027 C 40.517 4.243 40.445 4.246 40.374 4.246 z" style="stroke: none; stroke-width: 1; stroke-dasharray: none; stroke-linecap: butt; stroke-linejoin: miter; stroke-miterlimit: 10; fill: rgb(0,0,0); fill-rule: nonzero; opacity: 1;" transform=" matrix(1 0 0 1 0 0) " stroke-linecap="round"/>
</g>
</svg>