<?xml version="1.0" encoding="UTF-8" standalone="no"?>
<!-- Generator: Adobe Illustrator 25.1.0, SVG Export Plug-In . SVG Version: 6.00 Build 0)  -->

<svg
   xmlns:dc="http://purl.org/dc/elements/1.1/"
   xmlns:cc="http://creativecommons.org/ns#"
   xmlns:rdf="http://www.w3.org/1999/02/22-rdf-syntax-ns#"
   xmlns:svg="http://www.w3.org/2000/svg"
   xmlns="http://www.w3.org/2000/svg"
   xmlns:sodipodi="http://sodipodi.sourceforge.net/DTD/sodipodi-0.dtd"
   xmlns:inkscape="http://www.inkscape.org/namespaces/inkscape"
   version="1.1"
   id="Layer_2"
   x="0px"
   y="0px"
   viewBox="0 0 1000 384.31976"
   xml:space="preserve"
   sodipodi:docname="A.svg"
   width="1000"
   height="384.31976"
   inkscape:version="0.92.4 (5da689c313, 2019-01-14)"><metadata
   id="metadata25"><rdf:RDF><cc:Work
       rdf:about=""><dc:format>image/svg+xml</dc:format><dc:type
         rdf:resource="http://purl.org/dc/dcmitype/StillImage" /><dc:title></dc:title></cc:Work></rdf:RDF></metadata><defs
   id="defs23" /><sodipodi:namedview
   pagecolor="#ffffff"
   bordercolor="#666666"
   borderopacity="1"
   objecttolerance="10"
   gridtolerance="10"
   guidetolerance="10"
   inkscape:pageopacity="0"
   inkscape:pageshadow="2"
   inkscape:window-width="1920"
   inkscape:window-height="1017"
   id="namedview21"
   showgrid="false"
   fit-margin-top="0"
   fit-margin-left="0"
   fit-margin-right="0"
   fit-margin-bottom="0"
   inkscape:zoom="0.4416082"
   inkscape:cx="731.0575"
   inkscape:cy="73.347861"
   inkscape:window-x="1912"
   inkscape:window-y="-8"
   inkscape:window-maximized="1"
   inkscape:current-layer="Layer_2" />
<style
   type="text/css"
   id="style2">
	.st0{fill:#2621F6;}
</style>
<g
   id="g18"
   transform="matrix(3.8431975,0,0,3.8431975,-8.8393543,-10.376633)">
	<path
   class="st0"
   d="m 152.4,34 c -1.3,1.4 -2,3.2 -2,5.1 V 79 h 14 V 21.4 Z"
   id="path4"
   inkscape:connector-curvature="0"
   style="fill:#2621f6" />
	<polygon
   class="st0"
   points="164.4,2.7 150.4,2.7 150.4,24 164.4,9.2 "
   id="polygon6"
   style="fill:#2621f6" />
	<path
   class="st0"
   d="m 144.4,29.2 v 0 c -0.3,-12.1 -5.3,-17 -17.1,-17 -5.5,0 -26.4,0.1 -26.4,0.1 v 90.4 h 13.7 v -24 c 2.2,0 8.2,0.1 12.6,0.1 11.8,0 16.7,-4.9 17,-17 v 0 c 0.2,-0.2 0.2,-32.3 0.2,-32.6 z m -21.9,38.4 c -5.3,0 -7.8,0 -7.8,-4.6 V 28.1 c 0,-4.6 2.5,-4.6 7.8,-4.6 5.1,0 7.8,0 7.8,4.6 V 63 c 0.1,4.6 -2.7,4.5 -7.8,4.6 z"
   id="path8"
   inkscape:connector-curvature="0"
   style="fill:#2621f6" />
	<path
   class="st0"
   d="m 95,29.2 v 0 c -0.3,-12.1 -5.3,-17 -17.1,-17 -5.5,0 -26.4,0.1 -26.4,0.1 v 90.4 h 13.7 v -24 c 2.2,0 8.2,0.1 12.6,0.1 11.8,0 16.7,-4.9 17,-17 v 0 C 95,61.6 95,29.5 95,29.2 Z M 73.2,67.6 c -5.3,0 -7.8,0 -7.8,-4.6 V 28.1 c 0,-4.6 2.5,-4.6 7.8,-4.6 5.1,0 7.8,0 7.8,4.6 V 63 c 0,4.6 -2.8,4.5 -7.8,4.6 z"
   id="path10"
   inkscape:connector-curvature="0"
   style="fill:#2621f6" />
	<path
   class="st0"
   d="M 248.6,79 V 28.2 c 0,-4.6 -2.8,-4.6 -7.8,-4.6 -5.3,0 -7.8,0 -7.8,4.6 V 79 H 219.3 V 12.4 H 232 c 0,0 8,-0.1 13.5,-0.1 11.8,0 16.7,4.9 17,17 v 0 c 0,0.3 0,49.7 0,49.7 z"
   id="path12"
   inkscape:connector-curvature="0"
   style="fill:#2621f6" />
	<path
   class="st0"
   d="m 213.1,29.3 c -0.3,-12.1 -5.3,-17 -17,-17 -0.6,0 -13.1,0 -17.5,0 v 11.3 c 12.9,0 12.1,0 12.7,0 5.1,0 7.8,0 7.8,4.6 v 6.6 c -2.4,0 -8.1,-0.1 -12.3,-0.1 -11.8,0 -16.7,4.9 -17,17 v 0 c 0,0.3 0,10.1 0,10.4 v 0 c 0.3,12.1 5.3,17 17,17 5.5,0 26.4,-0.1 26.4,-0.1 z m -13.7,33.8 c 0,4.6 -2.5,4.6 -7.8,4.6 -5.1,0 -7.8,0 -7.8,-4.6 V 50.5 c 0,-4.6 2.8,-4.6 7.8,-4.6 5.3,0 7.8,0 7.8,4.6 z"
   id="path14"
   inkscape:connector-curvature="0"
   style="fill:#2621f6" />
	<path
   class="st0"
   d="m 45.6,29.3 c -0.3,-12.1 -5.3,-17 -17,-17 -0.6,0 -17.5,0 -17.5,0 v 11.3 c 0,0 12.1,0 12.7,0 5.1,0 7.8,0 7.8,4.6 v 6.6 c -2.4,0 -8.1,-0.1 -12.3,-0.1 -11.8,0 -16.7,4.9 -17,17 v 0 c 0,0.3 0,10.1 0,10.4 v 0 C 2.5,73.5 6.9,78.4 17.3,79 L 28,67.6 c -1.1,0.1 -2.4,0.1 -4,0.1 -5.1,0 -7.8,0 -7.8,-4.6 V 50.5 c 0,-4.6 2.8,-4.6 7.8,-4.6 5.3,0 7.8,0 7.8,4.6 v 28.4 c 0.5,0 13.7,0 13.7,0 z"
   id="path16"
   inkscape:connector-curvature="0"
   style="fill:#2621f6" />
</g>
</svg>